<?xml version="1.0" encoding="UTF-8"?>
<svg xmlns="http://www.w3.org/2000/svg" xmlns:xlink="http://www.w3.org/1999/xlink" width="16px" height="16px" viewBox="0 0 16 16" version="1.1">
<g id="surface1">
<path style=" stroke:none;fill-rule:nonzero;fill:rgb(0%,0%,0%);fill-opacity:1;" d="M 9.777344 0 L 9.777344 1.777344 L 12.96875 1.777344 L 4.230469 10.515625 L 5.484375 11.769531 L 14.222656 3.03125 L 14.222656 6.222656 L 16 6.222656 L 16 0 M 14.222656 14.222656 L 1.777344 14.222656 L 1.777344 1.777344 L 8 1.777344 L 8 0 L 1.777344 0 C 0.792969 0 0 0.800781 0 1.777344 L 0 14.222656 C 0 15.203125 0.796875 16 1.777344 16 L 14.222656 16 C 15.203125 16 16 15.203125 16 14.222656 L 16 8 L 14.222656 8 Z M 14.222656 14.222656 "/>
</g>
</svg>
